<svg width="200" height="185" viewBox="0 0 200 185" fill="none" xmlns="http://www.w3.org/2000/svg">
<g id="Union">
<mask id="path-1-inside-1_4236_1862" fill="white">
<path d="M98.5537 85.6904L159.042 25.2021L174.606 40.7666L113.927 101.446H200V123.458H113.254L174.187 184.391H143.237L0 41.1523H30.9492L76.542 86.7451V0H98.5537V85.6904Z"/>
</mask>
<path d="M98.5537 85.6904H96.5537V90.5189L99.9679 87.1046L98.5537 85.6904ZM159.042 25.2021L160.456 23.7879L159.042 22.3737L157.628 23.7879L159.042 25.2021ZM174.606 40.7666L176.021 42.1808L177.435 40.7666L176.021 39.3524L174.606 40.7666ZM113.927 101.446L112.513 100.032L109.098 103.446H113.927V101.446ZM200 101.446H202V99.4463H200V101.446ZM200 123.458V125.458H202V123.458H200ZM113.254 123.458V121.458H108.425L111.84 124.872L113.254 123.458ZM174.187 184.391V186.391H179.015L175.601 182.976L174.187 184.391ZM143.237 184.391L141.823 185.805L142.409 186.391H143.237V184.391ZM0 41.1523V39.1523H-4.8284L-1.41422 42.5666L0 41.1523ZM30.9492 41.1523L32.3634 39.7381L31.7776 39.1523H30.9492V41.1523ZM76.542 86.7451L75.1278 88.1593L78.542 91.5735V86.7451H76.542ZM76.542 0V-2H74.542V0H76.542ZM98.5537 0H100.554V-2H98.5537V0ZM98.5537 85.6904L99.9679 87.1046L160.456 26.6164L159.042 25.2021L157.628 23.7879L97.1395 84.2762L98.5537 85.6904ZM159.042 25.2021L157.628 26.6164L173.192 42.1808L174.606 40.7666L176.021 39.3524L160.456 23.7879L159.042 25.2021ZM174.606 40.7666L173.192 39.3524L112.513 100.032L113.927 101.446L115.341 102.861L176.021 42.1808L174.606 40.7666ZM113.927 101.446V103.446H200V101.446V99.4463H113.927V101.446ZM200 101.446H198V123.458H200H202V101.446H200ZM200 123.458V121.458H113.254V123.458V125.458H200V123.458ZM113.254 123.458L111.84 124.872L172.772 185.805L174.187 184.391L175.601 182.976L114.668 122.044L113.254 123.458ZM174.187 184.391V182.391H143.237V184.391V186.391H174.187V184.391ZM143.237 184.391L144.652 182.976L1.41422 39.7381L0 41.1523L-1.41422 42.5666L141.823 185.805L143.237 184.391ZM0 41.1523V43.1523H30.9492V41.1523V39.1523H0V41.1523ZM30.9492 41.1523L29.535 42.5666L75.1278 88.1593L76.542 86.7451L77.9562 85.3309L32.3634 39.7381L30.9492 41.1523ZM76.542 86.7451H78.542V0H76.542H74.542V86.7451H76.542ZM76.542 0V2H98.5537V0V-2H76.542V0ZM98.5537 0H96.5537V85.6904H98.5537H100.554V0H98.5537Z" fill="#DCEE2D" mask="url(#path-1-inside-1_4236_1862)"/>
</g>
</svg>
