<svg width="428" height="108" viewBox="0 0 428 108" fill="none" xmlns="http://www.w3.org/2000/svg">
<rect x="1.5" y="1.5" width="425" height="105" fill="#211F23" stroke="#DCEE2D" stroke-width="3"/>
<path d="M111.794 78V34.3636H118.378V72.3324H138.151V78H111.794ZM158.595 78.6605C155.371 78.6605 152.594 77.9716 150.264 76.5938C147.949 75.2017 146.159 73.2486 144.895 70.7344C143.645 68.206 143.02 65.2443 143.02 61.8494C143.02 58.4972 143.645 55.5426 144.895 52.9858C146.159 50.429 147.92 48.4332 150.179 46.9986C152.452 45.5639 155.108 44.8466 158.148 44.8466C159.994 44.8466 161.784 45.152 163.517 45.7628C165.25 46.3736 166.805 47.3324 168.183 48.6392C169.561 49.946 170.648 51.6435 171.443 53.7315C172.238 55.8054 172.636 58.3267 172.636 61.2955V63.554H146.621V58.7812H166.393C166.393 57.1051 166.052 55.6207 165.371 54.3281C164.689 53.0213 163.73 51.9915 162.494 51.2386C161.273 50.4858 159.838 50.1094 158.19 50.1094C156.4 50.1094 154.838 50.5497 153.503 51.4304C152.182 52.2969 151.159 53.4332 150.434 54.8395C149.724 56.2315 149.369 57.7443 149.369 59.3778V63.1065C149.369 65.294 149.753 67.1548 150.52 68.6889C151.301 70.223 152.388 71.3949 153.78 72.2045C155.172 73 156.798 73.3977 158.659 73.3977C159.866 73.3977 160.967 73.2273 161.961 72.8864C162.956 72.5312 163.815 72.0057 164.54 71.3097C165.264 70.6136 165.818 69.7543 166.202 68.7315L172.231 69.8182C171.748 71.5937 170.882 73.1491 169.632 74.4844C168.396 75.8054 166.841 76.8352 164.966 77.5739C163.105 78.2983 160.981 78.6605 158.595 78.6605ZM206.104 45.2727L194.236 78H187.418L175.529 45.2727H182.369L190.657 70.4574H190.998L199.265 45.2727H206.104ZM224.423 78.6605C221.199 78.6605 218.422 77.9716 216.092 76.5938C213.777 75.2017 211.987 73.2486 210.723 70.7344C209.473 68.206 208.848 65.2443 208.848 61.8494C208.848 58.4972 209.473 55.5426 210.723 52.9858C211.987 50.429 213.749 48.4332 216.007 46.9986C218.28 45.5639 220.936 44.8466 223.976 44.8466C225.823 44.8466 227.612 45.152 229.345 45.7628C231.078 46.3736 232.634 47.3324 234.011 48.6392C235.389 49.946 236.476 51.6435 237.271 53.7315C238.067 55.8054 238.465 58.3267 238.465 61.2955V63.554H212.449V58.7812H232.222C232.222 57.1051 231.881 55.6207 231.199 54.3281C230.517 53.0213 229.558 51.9915 228.323 51.2386C227.101 50.4858 225.666 50.1094 224.019 50.1094C222.229 50.1094 220.666 50.5497 219.331 51.4304C218.01 52.2969 216.987 53.4332 216.263 54.8395C215.553 56.2315 215.198 57.7443 215.198 59.3778V63.1065C215.198 65.294 215.581 67.1548 216.348 68.6889C217.129 70.223 218.216 71.3949 219.608 72.2045C221 73 222.627 73.3977 224.487 73.3977C225.695 73.3977 226.796 73.2273 227.79 72.8864C228.784 72.5312 229.644 72.0057 230.368 71.3097C231.092 70.6136 231.646 69.7543 232.03 68.7315L238.06 69.8182C237.577 71.5937 236.71 73.1491 235.46 74.4844C234.225 75.8054 232.669 76.8352 230.794 77.5739C228.933 78.2983 226.81 78.6605 224.423 78.6605ZM251.244 34.3636V78H244.873V34.3636H251.244ZM302.946 34.3636H309.551V63.0639C309.551 66.1179 308.834 68.8239 307.399 71.1818C305.964 73.5256 303.947 75.3722 301.348 76.7216C298.748 78.0568 295.702 78.7244 292.207 78.7244C288.727 78.7244 285.687 78.0568 283.088 76.7216C280.489 75.3722 278.471 73.5256 277.037 71.1818C275.602 68.8239 274.885 66.1179 274.885 63.0639V34.3636H281.469V62.5312C281.469 64.5057 281.902 66.2599 282.768 67.794C283.649 69.3281 284.892 70.5355 286.497 71.4162C288.102 72.2827 290.006 72.7159 292.207 72.7159C294.423 72.7159 296.334 72.2827 297.939 71.4162C299.558 70.5355 300.794 69.3281 301.646 67.794C302.513 66.2599 302.946 64.5057 302.946 62.5312V34.3636ZM317.952 90.2727V45.2727H324.173V50.5781H324.706C325.075 49.8963 325.608 49.108 326.304 48.2131C327 47.3182 327.966 46.5369 329.202 45.8693C330.438 45.1875 332.071 44.8466 334.102 44.8466C336.744 44.8466 339.102 45.5142 341.176 46.8494C343.25 48.1847 344.876 50.1094 346.055 52.6236C347.249 55.1378 347.845 58.1634 347.845 61.7003C347.845 65.2372 347.256 68.2699 346.077 70.7983C344.898 73.3125 343.278 75.2514 341.219 76.6151C339.159 77.9645 336.808 78.6392 334.166 78.6392C332.178 78.6392 330.551 78.3054 329.287 77.6378C328.037 76.9702 327.057 76.1889 326.347 75.294C325.636 74.3991 325.09 73.6037 324.706 72.9077H324.322V90.2727H317.952ZM324.195 61.6364C324.195 63.9375 324.528 65.9545 325.196 67.6875C325.864 69.4205 326.83 70.777 328.094 71.7571C329.358 72.723 330.906 73.206 332.739 73.206C334.642 73.206 336.233 72.7017 337.511 71.6932C338.79 70.6705 339.756 69.2855 340.409 67.5384C341.077 65.7912 341.411 63.8239 341.411 61.6364C341.411 59.4773 341.084 57.5384 340.43 55.8196C339.791 54.1009 338.825 52.7443 337.533 51.75C336.254 50.7557 334.656 50.2585 332.739 50.2585C330.892 50.2585 329.33 50.7344 328.051 51.6861C326.787 52.6378 325.828 53.9659 325.175 55.6705C324.521 57.375 324.195 59.3636 324.195 61.6364ZM362.356 34.3636L361.802 65.4503H355.9L355.346 34.3636H362.356ZM358.861 78.4048C357.682 78.4048 356.674 77.9929 355.836 77.169C354.998 76.331 354.586 75.3224 354.6 74.1435C354.586 72.9787 354.998 71.9844 355.836 71.1605C356.674 70.3224 357.682 69.9034 358.861 69.9034C360.012 69.9034 361.006 70.3224 361.844 71.1605C362.682 71.9844 363.108 72.9787 363.123 74.1435C363.108 74.9247 362.903 75.642 362.505 76.2955C362.121 76.9347 361.61 77.446 360.971 77.8295C360.332 78.2131 359.628 78.4048 358.861 78.4048Z" fill="#DCEE2D"/>
<path d="M71.2929 25H43.6382V31.755H70.2955L33.755 68.2955V41.8648H27V69.5195L37.5632 80.1281H65.2179V73.3277H38.5606L75.1011 36.7873V63.2179H81.8561V35.5632L71.2929 25Z" fill="#D8E01F"/>
</svg>
