<svg width="440" height="109" viewBox="0 0 440 109" fill="none" xmlns="http://www.w3.org/2000/svg">
<rect x="1.5" y="2.5" width="437" height="104" fill="#211F23" stroke="#DCEE2D" stroke-width="3"/>
<path d="M141.15 74V30.3636H156.703C160.098 30.3636 162.911 30.9815 165.141 32.2173C167.371 33.4531 169.04 35.1435 170.148 37.2884C171.256 39.419 171.81 41.8196 171.81 44.4901C171.81 47.1747 171.249 49.5895 170.127 51.7344C169.019 53.8651 167.343 55.5554 165.098 56.8054C162.868 58.0412 160.063 58.6591 156.682 58.6591H145.986V53.0767H156.086C158.23 53.0767 159.971 52.7074 161.306 51.9688C162.641 51.2159 163.621 50.1932 164.246 48.9006C164.871 47.608 165.184 46.1378 165.184 44.4901C165.184 42.8423 164.871 41.3793 164.246 40.1009C163.621 38.8224 162.634 37.821 161.284 37.0966C159.949 36.3722 158.188 36.0099 156 36.0099H147.733V74H141.15ZM191.732 74.6605C188.664 74.6605 185.987 73.9574 183.7 72.5511C181.413 71.1449 179.637 69.1776 178.373 66.6491C177.109 64.1207 176.477 61.1662 176.477 57.7855C176.477 54.3906 177.109 51.4219 178.373 48.8793C179.637 46.3366 181.413 44.3622 183.7 42.956C185.987 41.5497 188.664 40.8466 191.732 40.8466C194.801 40.8466 197.478 41.5497 199.765 42.956C202.052 44.3622 203.828 46.3366 205.092 48.8793C206.356 51.4219 206.988 54.3906 206.988 57.7855C206.988 61.1662 206.356 64.1207 205.092 66.6491C203.828 69.1776 202.052 71.1449 199.765 72.5511C197.478 73.9574 194.801 74.6605 191.732 74.6605ZM191.754 69.3125C193.742 69.3125 195.39 68.7869 196.697 67.7358C198.004 66.6847 198.97 65.2855 199.595 63.5384C200.234 61.7912 200.553 59.8665 200.553 57.7642C200.553 55.6761 200.234 53.7585 199.595 52.0114C198.97 50.25 198.004 48.8366 196.697 47.7713C195.39 46.706 193.742 46.1733 191.754 46.1733C189.751 46.1733 188.089 46.706 186.768 47.7713C185.461 48.8366 184.488 50.25 183.849 52.0114C183.224 53.7585 182.911 55.6761 182.911 57.7642C182.911 59.8665 183.224 61.7912 183.849 63.5384C184.488 65.2855 185.461 66.6847 186.768 67.7358C188.089 68.7869 189.751 69.3125 191.754 69.3125ZM219.538 74L209.908 41.2727H216.491L222.905 65.3068H223.224L229.659 41.2727H236.243L242.635 65.2003H242.955L249.325 41.2727H255.909L246.3 74H239.801L233.153 50.3707H232.663L226.016 74H219.538ZM274.404 74.6605C271.179 74.6605 268.402 73.9716 266.073 72.5938C263.758 71.2017 261.968 69.2486 260.704 66.7344C259.454 64.206 258.829 61.2443 258.829 57.8494C258.829 54.4972 259.454 51.5426 260.704 48.9858C261.968 46.429 263.729 44.4332 265.988 42.9986C268.26 41.5639 270.917 40.8466 273.956 40.8466C275.803 40.8466 277.593 41.152 279.326 41.7628C281.059 42.3736 282.614 43.3324 283.992 44.6392C285.37 45.946 286.456 47.6435 287.252 49.7315C288.047 51.8054 288.445 54.3267 288.445 57.2955V59.554H262.429V54.7812H282.202C282.202 53.1051 281.861 51.6207 281.179 50.3281C280.498 49.0213 279.539 47.9915 278.303 47.2386C277.081 46.4858 275.647 46.1094 273.999 46.1094C272.209 46.1094 270.647 46.5497 269.312 47.4304C267.991 48.2969 266.968 49.4332 266.243 50.8395C265.533 52.2315 265.178 53.7443 265.178 55.3778V59.1065C265.178 61.294 265.562 63.1548 266.329 64.6889C267.11 66.223 268.196 67.3949 269.589 68.2045C270.981 69 272.607 69.3977 274.468 69.3977C275.675 69.3977 276.776 69.2273 277.77 68.8864C278.765 68.5312 279.624 68.0057 280.348 67.3097C281.073 66.6136 281.627 65.7543 282.01 64.7315L288.04 65.8182C287.557 67.5937 286.691 69.1491 285.441 70.4844C284.205 71.8054 282.65 72.8352 280.775 73.5739C278.914 74.2983 276.79 74.6605 274.404 74.6605ZM294.854 74V41.2727H301.011V46.4716H301.352C301.949 44.7102 303 43.3253 304.506 42.3168C306.025 41.294 307.744 40.7827 309.662 40.7827C310.06 40.7827 310.528 40.7969 311.068 40.8253C311.622 40.8537 312.055 40.8892 312.368 40.9318V47.0256C312.112 46.9545 311.658 46.8764 311.004 46.7912C310.351 46.6918 309.697 46.642 309.044 46.642C307.538 46.642 306.196 46.9616 305.017 47.6009C303.852 48.2259 302.929 49.0994 302.247 50.2216C301.565 51.3295 301.224 52.5937 301.224 54.0142V74H294.854ZM345.793 30.3636H352.399V59.0639C352.399 62.1179 351.681 64.8239 350.247 67.1818C348.812 69.5256 346.795 71.3722 344.195 72.7216C341.596 74.0568 338.549 74.7244 335.055 74.7244C331.575 74.7244 328.535 74.0568 325.935 72.7216C323.336 71.3722 321.319 69.5256 319.884 67.1818C318.45 64.8239 317.732 62.1179 317.732 59.0639V30.3636H324.316V58.5312C324.316 60.5057 324.749 62.2599 325.616 63.794C326.497 65.3281 327.739 66.5355 329.345 67.4162C330.95 68.2827 332.853 68.7159 335.055 68.7159C337.271 68.7159 339.181 68.2827 340.786 67.4162C342.406 66.5355 343.641 65.3281 344.494 63.794C345.36 62.2599 345.793 60.5057 345.793 58.5312V30.3636ZM360.799 86.2727V41.2727H367.021V46.5781H367.553C367.923 45.8963 368.455 45.108 369.151 44.2131C369.848 43.3182 370.813 42.5369 372.049 41.8693C373.285 41.1875 374.919 40.8466 376.95 40.8466C379.592 40.8466 381.95 41.5142 384.024 42.8494C386.098 44.1847 387.724 46.1094 388.903 48.6236C390.096 51.1378 390.693 54.1634 390.693 57.7003C390.693 61.2372 390.103 64.2699 388.924 66.7983C387.745 69.3125 386.126 71.2514 384.066 72.6151C382.007 73.9645 379.656 74.6392 377.014 74.6392C375.025 74.6392 373.399 74.3054 372.134 73.6378C370.884 72.9702 369.904 72.1889 369.194 71.294C368.484 70.3991 367.937 69.6037 367.553 68.9077H367.17V86.2727H360.799ZM367.042 57.6364C367.042 59.9375 367.376 61.9545 368.044 63.6875C368.711 65.4205 369.677 66.777 370.941 67.7571C372.205 68.723 373.754 69.206 375.586 69.206C377.49 69.206 379.08 68.7017 380.359 67.6932C381.637 66.6705 382.603 65.2855 383.257 63.5384C383.924 61.7912 384.258 59.8239 384.258 57.6364C384.258 55.4773 383.931 53.5384 383.278 51.8196C382.639 50.1009 381.673 48.7443 380.38 47.75C379.102 46.7557 377.504 46.2585 375.586 46.2585C373.74 46.2585 372.177 46.7344 370.899 47.6861C369.634 48.6378 368.676 49.9659 368.022 51.6705C367.369 53.375 367.042 55.3636 367.042 57.6364ZM405.203 30.3636L404.649 61.4503H398.747L398.193 30.3636H405.203ZM401.709 74.4048C400.53 74.4048 399.521 73.9929 398.683 73.169C397.845 72.331 397.433 71.3224 397.447 70.1435C397.433 68.9787 397.845 67.9844 398.683 67.1605C399.521 66.3224 400.53 65.9034 401.709 65.9034C402.859 65.9034 403.854 66.3224 404.692 67.1605C405.53 67.9844 405.956 68.9787 405.97 70.1435C405.956 70.9247 405.75 71.642 405.352 72.2955C404.969 72.9347 404.457 73.446 403.818 73.8295C403.179 74.2131 402.476 74.4048 401.709 74.4048Z" fill="#DCEE2D"/>
<path d="M64.582 51.9873L86.4209 29.4082L92.041 35.2178L70.1318 57.8701H101.209V66.0869H69.8896L91.8887 88.833H80.7148L29 35.3623H40.1738L56.6348 52.3818V20H64.582V51.9873Z" fill="#DCEE2D"/>
<g filter="url(#filter0_g_4376_407)">
<path d="M64.582 51.9873L86.4209 29.4082L92.041 35.2178L70.1318 57.8701H101.209V66.0869H69.8896L91.8887 88.833H80.7148L29 35.3623H40.1738L56.6348 52.3818V20H64.582V51.9873Z" fill="#DCEE2D"/>
</g>
<defs>
<filter id="filter0_g_4376_407" x="9" y="0" width="112.211" height="108.833" filterUnits="userSpaceOnUse" color-interpolation-filters="sRGB">
<feFlood flood-opacity="0" result="BackgroundImageFix"/>
<feBlend mode="normal" in="SourceGraphic" in2="BackgroundImageFix" result="shape"/>
<feTurbulence type="fractalNoise" baseFrequency="2 2" numOctaves="3" seed="4800" />
<feDisplacementMap in="shape" scale="40" xChannelSelector="R" yChannelSelector="G" result="displacedImage" width="100%" height="100%" />
<feMerge result="effect1_texture_4376_407">
<feMergeNode in="displacedImage"/>
</feMerge>
</filter>
</defs>
</svg>
