<svg width="164" height="148" viewBox="0 0 164 148" fill="none" xmlns="http://www.w3.org/2000/svg">
<mask id="path-1-inside-1_4511_882" fill="white">
<path d="M80.8135 68.7783L130.414 20.2285L143.177 32.7217L93.4199 81.4258H164V99.0938H92.8691L142.833 148H117.454L0 33.0312H25.3779L62.7637 69.625V0H80.8135V68.7783Z"/>
</mask>
<path d="M80.8135 68.7783H77.8135V75.9127L82.912 70.9222L80.8135 68.7783ZM130.414 20.2285L132.513 18.0847L130.414 16.0305L128.316 18.0846L130.414 20.2285ZM143.177 32.7217L145.275 34.8656L147.465 32.7217L145.275 30.5778L143.177 32.7217ZM93.4199 81.4258L91.3214 79.2819L86.0663 84.4258H93.4199V81.4258ZM164 81.4258H167V78.4258H164V81.4258ZM164 99.0938V102.094H167V99.0938H164ZM92.8691 99.0938V96.0938H85.5155L90.7706 101.238L92.8691 99.0938ZM142.833 148V151H150.187L144.932 145.856L142.833 148ZM117.454 148L115.356 150.144L116.23 151H117.454V148ZM0 33.0312V30.0312H-7.3536L-2.09852 35.1751L0 33.0312ZM25.3779 33.0312L27.4764 30.8873L26.6018 30.0312H25.3779V33.0312ZM62.7637 69.625L60.6652 71.7689L65.7637 76.7594V69.625H62.7637ZM62.7637 0V-3H59.7637V0H62.7637ZM80.8135 0H83.8135V-3H80.8135V0ZM80.8135 68.7783L82.912 70.9222L132.513 22.3724L130.414 20.2285L128.316 18.0846L78.715 66.6344L80.8135 68.7783ZM130.414 20.2285L128.316 22.3724L141.078 34.8655L143.177 32.7217L145.275 30.5778L132.513 18.0847L130.414 20.2285ZM143.177 32.7217L141.078 30.5778L91.3214 79.2819L93.4199 81.4258L95.5184 83.5697L145.275 34.8656L143.177 32.7217ZM93.4199 81.4258V84.4258H164V81.4258V78.4258H93.4199V81.4258ZM164 81.4258H161V99.0938H164H167V81.4258H164ZM164 99.0938V96.0938H92.8691V99.0938V102.094H164V99.0938ZM92.8691 99.0938L90.7706 101.238L140.734 150.144L142.833 148L144.932 145.856L94.9677 96.9499L92.8691 99.0938ZM142.833 148V145H117.454V148V151H142.833V148ZM117.454 148L119.553 145.856L2.09852 30.8874L0 33.0312L-2.09852 35.1751L115.356 150.144L117.454 148ZM0 33.0312V36.0312H25.3779V33.0312V30.0312H0V33.0312ZM25.3779 33.0312L23.2794 35.1752L60.6652 71.7689L62.7637 69.625L64.8622 67.4811L27.4764 30.8873L25.3779 33.0312ZM62.7637 69.625H65.7637V0H62.7637H59.7637V69.625H62.7637ZM62.7637 0V3H80.8135V0V-3H62.7637V0ZM80.8135 0H77.8135V68.7783H80.8135H83.8135V0H80.8135Z" fill="#DCEE2D" mask="url(#path-1-inside-1_4511_882)"/>
</svg>
