<svg width="164" height="148" viewBox="0 0 164 148" fill="none" xmlns="http://www.w3.org/2000/svg">
<mask id="path-1-inside-1_4511_882" fill="white">
<path d="M80.8135 68.7783L130.414 20.2285L143.177 32.7217L93.4199 81.4258H164V99.0938H92.8691L142.833 148H117.454L0 33.0312H25.3779L62.7637 69.625V0H80.8135V68.7783Z"/>
</mask>
<path d="M80.8135 68.7783H65.8135V104.45L91.3059 79.4979L80.8135 68.7783ZM130.414 20.2285L140.907 9.50933L130.414 -0.761538L119.922 9.50898L130.414 20.2285ZM143.177 32.7217L153.669 43.4411L164.62 32.7219L153.67 22.0025L143.177 32.7217ZM93.4199 81.4258L82.9273 70.7064L56.652 96.4258H93.4199V81.4258ZM164 81.4258H179V66.4258H164V81.4258ZM164 99.0938V114.094H179V99.0938H164ZM92.8691 99.0938V84.0938H56.101L82.3766 109.813L92.8691 99.0938ZM142.833 148V163H179.601L153.326 137.281L142.833 148ZM117.454 148L106.962 158.719L111.335 163H117.454V148ZM0 33.0312V18.0312H-36.768L-10.4926 43.7507L0 33.0312ZM25.3779 33.0312L35.8704 22.3117L31.4973 18.0312H25.3779V33.0312ZM62.7637 69.625L52.2712 80.3445L77.7637 105.297V69.625H62.7637ZM62.7637 0V-15H47.7637V0H62.7637ZM80.8135 0H95.8135V-15H80.8135V0ZM80.8135 68.7783L91.3059 79.4979L140.907 30.9481L130.414 20.2285L119.922 9.50898L70.321 58.0588L80.8135 68.7783ZM130.414 20.2285L119.921 30.9477L132.684 43.4409L143.177 32.7217L153.67 22.0025L140.907 9.50933L130.414 20.2285ZM143.177 32.7217L132.684 22.0023L82.9273 70.7064L93.4199 81.4258L103.913 92.1452L153.669 43.4411L143.177 32.7217ZM93.4199 81.4258V96.4258H164V81.4258V66.4258H93.4199V81.4258ZM164 81.4258H149V99.0938H164H179V81.4258H164ZM164 99.0938V84.0938H92.8691V99.0938V114.094H164V99.0938ZM92.8691 99.0938L82.3766 109.813L132.34 158.719L142.833 148L153.326 137.281L103.362 88.3743L92.8691 99.0938ZM142.833 148V133H117.454V148V163H142.833V148ZM117.454 148L127.947 137.281L10.4926 22.3118L0 33.0312L-10.4926 43.7507L106.962 158.719L117.454 148ZM0 33.0312V48.0312H25.3779V33.0312V18.0312H0V33.0312ZM25.3779 33.0312L14.8855 43.7508L52.2712 80.3445L62.7637 69.625L73.2561 58.9055L35.8704 22.3117L25.3779 33.0312ZM62.7637 69.625H77.7637V0H62.7637H47.7637V69.625H62.7637ZM62.7637 0V15H80.8135V0V-15H62.7637V0ZM80.8135 0H65.8135V68.7783H80.8135H95.8135V0H80.8135Z" fill="#DCEE2D" mask="url(#path-1-inside-1_4511_882)"/>
</svg>
